<svg width="1024" height="1024" version="1.1" xmlns="http://www.w3.org/2000/svg" desc="Created with imagetracer.js version 1.2.6" ><path fill="rgb(0,0,0)" stroke="rgb(0,0,0)" stroke-width="1" opacity="0" d="M 0 0 L 1024 0 L 1024 1024 L 0 1024 L 0 0 Z M 257 202 L 254 205 L 254 242 L 253 243 Q 256 246 254 254 L 254 256 L 254 305 L 253 310 L 254 313 L 253 316 L 254 318 L 254 345 L 254 347 L 254 362 L 253 363 Q 252 367 254 369 L 254 386 L 253 387 L 253 457 L 254 458 L 254 485 Q 251 486 253 493 L 253 495 L 254 498 L 253 502 L 253 527 L 254 528 Q 255 532 253 534 Q 252 538 254 540 L 254 567 L 253 568 L 256 571 L 270 562 L 288 554 L 318 546 L 333 545 L 336 544 L 356 544 L 365 546 L 372 546 L 400 552 L 411 557 L 416 557 L 416 522 L 417 521 L 416 516 L 416 437 L 418 437 L 458 476 L 460 480 L 462 480 L 511 528 L 515 527 L 545 497 Q 547 498 546 496 L 608 436 Q 609 434 610 437 L 609 440 L 609 615 L 610 617 L 619 619 L 626 619 L 629 620 L 656 620 L 657 619 L 666 619 L 668 619 L 681 616 L 687 616 L 713 608 L 743 593 L 766 576 L 770 570 L 770 209 L 769 205 L 766 202 L 591 202 L 589 203 L 577 221 L 515 332 L 511 334 L 437 205 L 433 202 L 257 202 Z M 338 574 L 337 575 L 325 575 L 317 577 L 311 577 L 295 581 L 270 591 L 255 601 L 255 628 L 257 629 Q 273 618 294 611 L 315 606 L 331 605 L 332 604 L 363 604 L 364 605 L 373 605 L 401 610 L 450 625 L 519 651 L 558 664 L 604 675 L 621 676 L 622 677 L 639 677 L 640 678 L 675 676 L 698 671 L 713 666 L 742 652 L 766 635 L 768 633 Q 767 628 769 627 L 769 614 L 768 613 L 769 611 L 768 604 L 765 605 Q 762 604 763 607 Q 744 623 719 634 L 695 643 L 673 647 L 665 647 L 664 648 L 625 648 L 624 647 L 608 646 L 582 641 L 530 625 L 460 599 L 413 584 L 375 576 L 354 575 L 353 574 L 338 574 Z M 334 631 L 333 632 L 323 632 L 306 635 L 286 641 L 268 649 L 255 658 L 255 730 L 257 731 L 731 731 L 732 730 L 754 730 L 755 731 Q 764 732 768 730 L 768 708 L 769 707 L 768 702 L 769 699 L 768 698 L 768 658 L 739 678 L 713 690 L 679 699 L 667 700 L 666 701 L 650 701 L 649 702 L 609 700 L 566 691 L 536 682 L 527 678 L 524 678 L 444 649 L 398 636 L 393 636 L 381 633 L 374 633 L 373 632 L 363 632 L 362 631 L 334 631 Z " /><path fill="rgb(213,35,43)" stroke="rgb(213,35,43)" stroke-width="1" opacity="0.9450980392156862" d="M 261.5 203 L 426.5 203 Q 428.2 205.8 434.5 204 L 436 205.5 L 511.5 336 L 516 332.5 L 578 221.5 L 589.5 204 L 596 204.5 Q 589.7 203.7 588 207.5 L 523 320.5 L 518 331.5 L 513.5 337 Q 508.5 337.5 508 333.5 L 504.5 327 Q 501.9 327.8 503 324.5 L 473 271 Q 470 272.3 471 268.5 L 464 255.5 L 459 249.5 L 455 239 Q 452 240.3 453 236.5 L 433.5 205 L 406.5 205 Q 404.8 202.2 398.5 204 L 395.5 205 L 394.5 204 L 320.5 204 L 318.5 204 L 262.5 204 L 257 205 L 256 208.5 L 256 345.5 L 256 347.5 L 256 565.5 L 257.5 567 L 258 565 L 260.5 565 L 277.5 555 L 299.5 547 L 304.5 547 L 309.5 545 L 319.5 543 L 326.5 543 L 327.5 542 L 352.5 541 L 353.5 542 L 370.5 543 L 375.5 545 L 395.5 548 L 411.5 553 L 413 551.5 L 413 437.5 L 414 434 L 420 435 L 420 437 Q 422.7 435.9 422 438.5 L 428 443.5 L 434.5 451 Q 436.8 450.3 436 452.5 L 471.5 487 L 473 487 Q 471.9 489.7 474.5 489 L 479 495 Q 481.7 493.9 481 496.5 L 510.5 524 L 512.5 524 L 516 522 Q 514.9 519.3 517.5 520 L 529.5 508 L 531 508 L 533.5 504 L 536.5 502 L 541 496 L 542.5 496 L 570.5 468 L 572 468 L 572 466 L 574 466 Q 572.9 463.3 575.5 464 L 586 453.5 L 586 452 L 587.5 452 L 602.5 437 L 601 439.5 Q 601.8 441.8 599.5 441 L 513.5 526 L 510.5 526 L 491 507.5 Q 491.8 505.3 489.5 506 L 418.5 436 L 415 435 L 414 437.5 L 414 450.5 L 415 451.5 L 415 556 L 401.5 551 L 374.5 545 L 368.5 545 L 360.5 543 L 329.5 543 L 322.5 545 L 310.5 546 L 291.5 551 L 272.5 559 L 255 569 L 255 205.5 L 256.5 204 L 261.5 203 Z " /><path fill="rgb(213,35,43)" stroke="rgb(213,35,43)" stroke-width="1" opacity="0.9450980392156862" d="M 599.5 203 L 604 203.5 L 599.5 204 L 599.5 203 Z " /><path fill="rgb(213,35,43)" stroke="rgb(213,35,43)" stroke-width="1" opacity="0.9450980392156862" d="M 609.5 203 L 762.5 203 L 768 205.5 L 768 570.5 L 758.5 580 L 736.5 595 L 720.5 603 L 691.5 613 L 677.5 616 L 661.5 617 L 660.5 618 L 620.5 618 L 611 614.5 L 611 435.5 L 609.5 434 L 603.5 436 L 603.5 435 Q 605.2 432.2 610.5 433 L 612 434.5 L 612 582.5 L 613 585.5 L 612 587.5 L 612 589.5 Q 610.2 595.8 613 597.5 L 612 601.5 Q 614.3 602.8 613 607.5 L 612 612.5 L 613 615 L 615.5 616 L 626.5 616 L 627.5 617 L 657.5 617 L 665.5 615 L 675.5 615 L 688.5 611 L 694.5 611 L 700.5 609 L 728.5 598 L 753 583 L 753 581 Q 756.7 582.5 756 579.5 L 766 571.5 L 767 569.5 L 767 207.5 L 764.5 205 L 745.5 205 L 743.5 204 L 742.5 205 L 734.5 205 L 732.5 205 Q 727.8 206.3 726.5 204 L 721.5 205 L 719.5 204 L 717.5 204 L 647.5 204 L 646.5 205 L 645.5 204 L 609.5 204 L 609.5 203 Z " /><path fill="rgb(185,27,32)" stroke="rgb(185,27,32)" stroke-width="1" opacity="0.44313725490196076" d="M 256.5 202 L 432.5 202 L 437 204.5 L 511 334 L 515 331.5 L 577 220.5 L 588.5 203 L 590.5 202 L 765.5 202 L 769 204.5 L 770 208.5 L 770 569.5 L 765.5 576 L 742.5 593 L 712.5 608 L 686.5 616 L 680.5 616 L 667.5 619 L 665.5 619 L 656.5 619 L 655.5 620 L 628.5 620 L 625.5 619 L 618.5 619 L 610 617 L 609 614.5 L 609 439.5 L 610 436.5 Q 608.8 433.8 607.5 436 L 546 495.5 Q 546.8 497.8 544.5 497 L 514.5 527 L 510.5 528 L 461.5 480 L 460 480 L 457.5 476 L 417.5 437 L 416 437 L 416 515.5 L 417 520.5 L 416 521.5 L 416 557 L 410.5 557 L 399.5 552 L 371.5 546 L 364.5 546 L 355.5 544 L 335.5 544 L 332.5 545 L 317.5 546 L 287.5 554 L 269.5 562 L 255.5 571 L 253 567.5 L 254 566.5 L 254 539.5 Q 251.8 538.3 253 533.5 Q 255.2 532.3 254 527.5 L 253 526.5 L 253 501.5 L 254 497.5 L 253 494.5 L 253 492.5 Q 251.3 486.2 254 484.5 L 254 457.5 L 253 456.5 L 253 386.5 L 254 385.5 L 254 368.5 Q 251.8 367.3 253 362.5 L 254 361.5 L 254 346.5 L 254 344.5 L 254 317.5 L 253 315.5 L 254 312.5 L 253 309.5 L 254 304.5 L 254 255.5 L 254 253.5 Q 255.5 246 253 242.5 L 254 241.5 L 254 204.5 L 256.5 202 Z M 262 203 L 257 204 L 255 206 L 255 569 L 273 559 L 292 551 L 311 546 L 323 545 L 330 543 L 361 543 L 369 545 L 375 545 L 402 551 L 415 556 L 415 452 L 414 451 L 414 438 L 415 435 L 419 436 L 490 506 Q 492 505 491 508 L 511 526 L 514 526 L 600 441 Q 602 442 601 440 L 608 434 L 610 434 L 611 436 L 611 615 L 621 618 L 661 618 L 662 617 L 678 616 L 692 613 L 721 603 L 737 595 L 759 580 L 768 571 L 768 206 L 763 203 L 610 203 L 609 204 L 604 203 L 590 204 L 578 222 L 516 333 L 512 336 L 436 206 L 435 204 Q 428 206 427 203 L 262 203 Z " /><path fill="rgb(185,27,32)" stroke="rgb(185,27,32)" stroke-width="1" opacity="0.44313725490196076" d="M 327.5 604 L 331 604.5 L 327.5 605 L 327.5 604 Z " /><path fill="rgb(185,27,32)" stroke="rgb(185,27,32)" stroke-width="1" opacity="0.44313725490196076" d="M 761.5 607 L 759.5 610 L 761.5 607 Z " /><path fill="rgb(185,27,32)" stroke="rgb(185,27,32)" stroke-width="1" opacity="0.44313725490196076" d="M 768.5 614 L 769 626.5 L 768 626.5 L 768.5 614 Z " /><path fill="rgb(185,27,32)" stroke="rgb(185,27,32)" stroke-width="1" opacity="0.44313725490196076" d="M 763.5 660 L 762.5 662 L 763.5 660 Z " /><path fill="rgb(185,27,32)" stroke="rgb(185,27,32)" stroke-width="1" opacity="0.44313725490196076" d="M 749.5 670 L 748.5 672 L 749.5 670 Z " /><path fill="rgb(185,27,32)" stroke="rgb(185,27,32)" stroke-width="1" opacity="0.44313725490196076" d="M 310.5 730 L 317 730.5 L 310.5 731 L 310.5 730 Z " /><path fill="rgb(185,27,32)" stroke="rgb(185,27,32)" stroke-width="1" opacity="0.44313725490196076" d="M 328.5 730 L 332 730.5 L 328.5 731 L 328.5 730 Z " /><path fill="rgb(185,27,32)" stroke="rgb(185,27,32)" stroke-width="1" opacity="0.44313725490196076" d="M 384.5 730 L 387 730.5 L 384.5 731 L 384.5 730 Z " /><path fill="rgb(185,27,32)" stroke="rgb(185,27,32)" stroke-width="1" opacity="0.44313725490196076" d="M 437.5 730 L 448 730.5 L 437.5 731 L 437.5 730 Z " /><path fill="rgb(185,27,32)" stroke="rgb(185,27,32)" stroke-width="1" opacity="0.44313725490196076" d="M 449.5 730 L 458 730.5 L 449.5 731 L 449.5 730 Z " /><path fill="rgb(185,27,32)" stroke="rgb(185,27,32)" stroke-width="1" opacity="0.44313725490196076" d="M 465.5 730 L 475 730.5 L 465.5 731 L 465.5 730 Z " /><path fill="rgb(185,27,32)" stroke="rgb(185,27,32)" stroke-width="1" opacity="0.44313725490196076" d="M 495.5 730 L 498 730.5 L 495.5 731 L 495.5 730 Z " /><path fill="rgb(185,27,32)" stroke="rgb(185,27,32)" stroke-width="1" opacity="0.44313725490196076" d="M 673.5 730 L 678 730.5 L 673.5 731 L 673.5 730 Z " /><path fill="rgb(185,27,32)" stroke="rgb(185,27,32)" stroke-width="1" opacity="0.44313725490196076" d="M 681.5 730 L 684 730.5 L 681.5 731 L 681.5 730 Z " /><path fill="rgb(185,27,32)" stroke="rgb(185,27,32)" stroke-width="1" opacity="0.44313725490196076" d="M 699.5 730 L 702 730.5 L 699.5 731 L 699.5 730 Z " /><path fill="rgb(185,27,32)" stroke="rgb(185,27,32)" stroke-width="1" opacity="0.44313725490196076" d="M 704.5 730 L 711 730.5 L 704.5 731 L 704.5 730 Z " /><path fill="rgb(185,27,32)" stroke="rgb(185,27,32)" stroke-width="1" opacity="0.44313725490196076" d="M 712.5 730 L 715 730.5 L 712.5 731 L 712.5 730 Z " /><path fill="rgb(185,27,32)" stroke="rgb(185,27,32)" stroke-width="1" opacity="0.44313725490196076" d="M 723.5 730 L 728 730.5 L 723.5 731 L 723.5 730 Z " /><path fill="rgb(185,27,32)" stroke="rgb(185,27,32)" stroke-width="1" opacity="0.44313725490196076" d="M 762.5 730 L 765 730.5 L 762.5 731 L 762.5 730 Z " /><path fill="rgb(239,28,45)" stroke="rgb(239,28,45)" stroke-width="1" opacity="0.996078431372549" d="M 262.5 204 L 318.5 204 L 319.5 205 L 320.5 204 L 394.5 204 L 397.5 205 Q 399.3 202.2 405.5 204 L 406.5 205 L 433.5 205 L 436 207.5 L 451 232.5 L 453 239 Q 455.7 237.9 455 240.5 L 459 249.5 L 467 260.5 L 471 271 Q 473.7 269.9 473 272.5 L 487 295.5 L 492 306.5 L 497 312.5 L 503 327 L 506 328.5 L 506 330.5 L 511.5 337 Q 515.5 337.5 516 334.5 L 572 234.5 L 578 226.5 L 580 220.5 L 590.5 205 Q 595.3 206.3 596.5 204 L 645.5 204 L 647.5 204 L 717.5 204 L 718.5 205 L 720.5 204 L 725.5 205 L 727.5 205 Q 732.3 206.3 733.5 204 L 734.5 205 L 742.5 205 L 744.5 204 L 745.5 205 L 764.5 205 L 767 207.5 L 767 569.5 L 764.5 573 L 756 579.5 L 756 581 L 753 581 Q 754.1 583.7 751.5 583 L 728.5 598 L 694.5 611 L 688.5 611 L 675.5 615 L 665.5 615 L 657.5 617 L 627.5 617 L 626.5 616 L 615.5 616 L 613 615 L 612 608.5 Q 614.3 607.2 613 602.5 L 612 598.5 L 612 596.5 Q 610.2 590.3 613 588.5 L 612 586.5 L 613 583.5 L 612 582.5 L 612 434.5 L 610.5 433 Q 604.7 432.2 603 435.5 L 603.5 437 L 587.5 452 L 586 452 L 586 453.5 L 575.5 464 L 570.5 468 L 542.5 496 L 541 496 L 536.5 502 L 533.5 504 L 531 508 L 516 520 Q 517.1 522.7 514.5 522 L 510.5 524 L 481 496.5 L 479 493.5 L 473 489 Q 474.1 486.3 471.5 487 L 436 452.5 Q 436.8 450.3 434.5 451 L 424.5 440 L 422 438.5 L 422 437 L 420 437 Q 421.1 434.3 418.5 435 L 414 434 L 413 437.5 L 413 551.5 L 411.5 553 L 395.5 548 L 380.5 546 L 370.5 543 L 345.5 541 L 344.5 542 L 319.5 543 L 304.5 547 L 299.5 547 L 277.5 555 L 260.5 565 L 258 565 L 257.5 567 L 256 565.5 L 256 347.5 L 256 345.5 L 256 208.5 L 257 205 L 262.5 204 Z " /><path fill="rgb(252,252,251)" stroke="rgb(252,252,251)" stroke-width="1" opacity="0.9490196078431372" d="M 337.5 574 L 341.5 574 L 343.5 575 L 344.5 574 L 352.5 574 L 353.5 575 L 365.5 575 L 366.5 576 L 381.5 577 L 422.5 587 L 459.5 599 L 540.5 629 L 581.5 641 L 614.5 647 L 642.5 648 L 643.5 649 L 646.5 648 L 648.5 649 L 649.5 648 L 663.5 648 L 664.5 647 L 679.5 646 L 701.5 641 L 723.5 632 L 738.5 624 L 763 606.5 Q 762.3 604.3 764.5 605 L 768 604 L 769 608.5 L 768 611.5 L 769 613.5 L 768 614.5 L 768 632.5 L 765.5 635 L 741.5 652 L 712.5 666 L 693.5 672 L 674.5 676 L 639.5 678 L 638.5 677 L 622.5 677 L 621.5 676 L 611.5 676 L 610.5 675 L 598.5 674 L 557.5 664 L 521.5 651 L 518.5 651 L 444.5 623 L 396.5 609 L 391.5 609 L 372.5 605 L 363.5 605 L 362.5 604 L 327.5 604 L 320.5 606 L 318.5 606 L 304.5 608 L 284.5 614 L 265.5 623 L 256.5 629 L 255 627.5 L 255 600.5 L 269.5 591 L 291.5 582 L 311.5 577 L 317.5 577 L 324.5 575 L 336.5 575 L 337.5 574 Z " /><path fill="rgb(252,252,251)" stroke="rgb(252,252,251)" stroke-width="1" opacity="0.9490196078431372" d="M 333.5 631 L 361.5 631 L 362.5 632 L 372.5 632 L 373.5 633 L 380.5 633 L 392.5 636 L 397.5 636 L 446.5 650 L 556.5 689 L 608.5 700 L 648.5 702 L 649.5 701 L 665.5 701 L 666.5 700 L 678.5 699 L 707.5 692 L 738.5 678 L 768 658 L 768 697.5 L 769 698.5 L 768 701.5 L 769 706.5 L 768 707.5 L 768 730 L 765.5 731 L 762.5 730 L 760.5 730 L 756.5 731 L 753.5 730 L 731.5 730 L 728.5 731 L 723.5 730 Q 721.8 732.7 715.5 731 L 712.5 730 L 710.5 730 L 702.5 731 L 699.5 730 L 698.5 731 L 684.5 731 L 681.5 730 L 678.5 731 L 673.5 730 L 670.5 731 L 668.5 730 L 667.5 731 L 637.5 731 L 635.5 731 L 629.5 730 L 627.5 730 L 625.5 731 L 597.5 731 L 595.5 731 Q 590.8 732.2 589.5 730 L 585.5 731 L 583.5 731 L 498.5 731 L 495.5 730 L 491.5 731 L 489.5 731 L 465.5 730 L 462.5 731 L 460.5 730 L 458.5 731 L 457.5 730 L 449.5 730 L 447.5 730 L 437.5 730 L 436.5 731 L 387.5 731 L 384.5 730 Q 383 732.5 377.5 731 L 375.5 731 L 372.5 730 L 371.5 731 L 363.5 731 L 357.5 731 L 338.5 731 L 336.5 730 L 332.5 731 L 328.5 730 L 327.5 731 L 317.5 731 Q 316 728.5 310.5 730 L 309.5 731 L 256.5 731 L 255 729.5 L 255 657.5 L 267.5 649 L 285.5 641 L 305.5 635 L 322.5 632 L 332.5 632 L 333.5 631 Z " /></svg>